<svg
  width="512"
  height="512"
  viewBox="0 0 512 512"
  fill="none"
  xmlns="http://www.w3.org/2000/svg"
>
  <defs>
    <linearGradient
      id="background"
      x1="70"
      y1="54"
      x2="448"
      y2="464"
      gradientUnits="userSpaceOnUse"
    >
      <stop stop-color="#7C6CFF"/>
      <stop offset="0.52" stop-color="#515CE8"/>
      <stop offset="1" stop-color="#168EBC"/>
    </linearGradient>

    <linearGradient
      id="leftImage"
      x1="128"
      y1="180"
      x2="252"
      y2="338"
      gradientUnits="userSpaceOnUse"
    >
      <stop stop-color="#A89FFF"/>
      <stop offset="1" stop-color="#6559E8"/>
    </linearGradient>

    <linearGradient
      id="rightImage"
      x1="268"
      y1="170"
      x2="394"
      y2="344"
      gradientUnits="userSpaceOnUse"
    >
      <stop stop-color="#5DD5ED"/>
      <stop offset="1" stop-color="#168EBC"/>
    </linearGradient>

    <filter
      id="shadow"
      x="20"
      y="25"
      width="472"
      height="482"
      filterUnits="userSpaceOnUse"
      color-interpolation-filters="sRGB"
    >
      <feDropShadow
        dx="0"
        dy="18"
        stdDeviation="20"
        flood-color="#121531"
        flood-opacity="0.34"
      />
    </filter>
  </defs>

  <g filter="url(#shadow)">
    <rect
      x="52"
      y="45"
      width="408"
      height="408"
      rx="104"
      fill="url(#background)"
    />

    <rect
      x="73"
      y="66"
      width="366"
      height="366"
      rx="86"
      stroke="white"
      stroke-opacity="0.14"
      stroke-width="4"
    />

    <path
      d="M119 154C119 134.118 135.118 118 155 118H264V394H155C135.118 394 119 377.882 119 358V154Z"
      fill="#242650"
      fill-opacity="0.82"
      stroke="white"
      stroke-opacity="0.82"
      stroke-width="12"
    />

    <path
      d="M248 118H357C376.882 118 393 134.118 393 154V358C393 377.882 376.882 394 357 394H248V118Z"
      fill="#163D58"
      fill-opacity="0.82"
      stroke="white"
      stroke-opacity="0.82"
      stroke-width="12"
    />

    <circle
      cx="183"
      cy="184"
      r="24"
      fill="#FFD978"
    />

    <circle
      cx="326"
      cy="184"
      r="24"
      fill="#9FF4FF"
    />

    <path
      d="M125 337L182 270C190.776 259.693 206.469 259.036 216.078 268.573L264 316.126V388H151C136.641 388 125 376.359 125 362V337Z"
      fill="url(#leftImage)"
    />

    <path
      d="M248 310L290.356 266.553C299.287 257.391 313.986 257.172 323.186 266.063L387 327.744V362C387 376.359 375.359 388 361 388H248V310Z"
      fill="url(#rightImage)"
    />

    <rect
      x="247"
      y="103"
      width="18"
      height="306"
      rx="9"
      fill="white"
    />

    <circle
      cx="256"
      cy="256"
      r="43"
      fill="#FFFFFF"
    />

    <path
      d="M236 256H276"
      stroke="#525BE4"
      stroke-width="12"
      stroke-linecap="round"
    />

    <path
      d="M243 240L227 256L243 272"
      stroke="#525BE4"
      stroke-width="10"
      stroke-linecap="round"
      stroke-linejoin="round"
    />

    <path
      d="M269 240L285 256L269 272"
      stroke="#168EBC"
      stroke-width="10"
      stroke-linecap="round"
      stroke-linejoin="round"
    />
  </g>
</svg>
